<?xml version="1.0" encoding="UTF-8" standalone="no"?>
<svg
   xmlns:dc="http://purl.org/dc/elements/1.1/"
   xmlns:cc="http://creativecommons.org/ns#"
   xmlns:rdf="http://www.w3.org/1999/02/22-rdf-syntax-ns#"
   xmlns:svg="http://www.w3.org/2000/svg"
   xmlns="http://www.w3.org/2000/svg"
   xmlns:sodipodi="http://sodipodi.sourceforge.net/DTD/sodipodi-0.dtd"
   xmlns:inkscape="http://www.inkscape.org/namespaces/inkscape"
   version="1.1"
   id="svg2"
   xml:space="preserve"
   width="2455.04"
   height="733.44"
   viewBox="0 0 2455.04 733.44"
   sodipodi:docname="лого черный1.eps"><metadata
     id="metadata8"><rdf:RDF><cc:Work
         rdf:about=""><dc:format>image/svg+xml</dc:format><dc:type
           rdf:resource="http://purl.org/dc/dcmitype/StillImage" /></cc:Work></rdf:RDF></metadata><defs
     id="defs6" /><sodipodi:namedview
     pagecolor="#ffffff"
     bordercolor="#666666"
     borderopacity="1"
     objecttolerance="10"
     gridtolerance="10"
     guidetolerance="10"
     inkscape:pageopacity="0"
     inkscape:pageshadow="2"
     inkscape:window-width="640"
     inkscape:window-height="480"
     id="namedview4" /><g
     id="g10"
     inkscape:groupmode="layer"
     inkscape:label="ink_ext_XXXXXX"
     transform="matrix(1.3333333,0,0,-1.3333333,0,733.44)"><g
       id="g12"
       transform="scale(0.1)"><path
         d="m 10764.3,2101.95 c 2.4,83.46 -67.8,141.66 -137,143.08 -84.2,1.71 -144.7,-70.17 -145.2,-140.65 -0.4,-66.97 53,-143.3 142.8,-142.88 78.9,0.38 140.9,64.9 139.4,140.45 z m -20.4,-871.91 c 0,163.16 0,326.34 -0.1,489.5 0,14.39 0.4,28.84 -0.7,43.17 -4.9,63.65 -53.7,109.31 -116.2,111.59 -69.9,2.55 -118.4,-53.54 -122.5,-110.32 -0.8,-11.15 -0.6,-22.39 -0.6,-33.58 0,-332.72 0,-665.46 0,-998.181 0,-12.797 -0.5,-25.707 0.9,-38.36 7.3,-62.39 59.2,-108.211 120.9,-107.359 61.7,0.852 112.2,48.301 117.4,110.879 1.2,14.32 0.8,28.773 0.8,43.172 0.1,163.16 0,326.329 0.1,489.489 z M 9634.32,4565.77 c -2.3,16.73 -3.32,26.01 -4.88,35.2 -9.95,58.71 -58.08,100.8 -116,101.57 -60,0.81 -111.4,-42.14 -121.1,-102.02 -2.03,-12.54 -1.77,-25.51 -1.77,-38.28 -0.09,-335.97 -0.07,-671.94 -0.05,-1007.9 0,-9.6 -0.34,-19.25 0.52,-28.78 5.87,-65.31 56.94,-111.2 121.98,-111.26 72.23,-0.06 119.64,62.68 117.56,114.87 -0.63,15.97 0.18,31.99 0.18,47.98 0.04,158.39 -0.34,316.78 0.15,475.16 0.64,210.28 142.11,355.56 302.07,397.01 83.02,21.51 164.72,16.5 245.62,-10.26 16.6,-5.5 33.3,-12.11 50.4,-14.76 53.7,-8.28 102.6,19.42 124.8,68.85 22.4,49.87 10.1,102.76 -32.5,138.43 -23.6,19.8 -50.9,32.78 -79.9,42.65 -39.6,13.5 -80.7,18.93 -122.1,23.65 -160.42,18.3 -308.3,-15.22 -442.97,-105.01 -11.74,-7.83 -23.71,-15.32 -42.01,-27.1 z m 7320.88,24.4 c -7,18.26 -11.2,32.02 -17.5,44.71 -23.8,47.93 -76.8,75.53 -127.1,66.21 -62.8,-11.59 -98.5,-64.84 -99.4,-108.38 -0.4,-15.98 -1,-31.98 -1,-47.96 -0.1,-324.79 -0.1,-649.57 0,-974.35 0,-17.58 0.6,-35.18 1.6,-52.73 1.1,-19.68 8.3,-37.36 20,-53.17 30.6,-41.73 72.4,-56.64 122.3,-47.54 48.9,8.92 79.5,39.64 91.4,87.27 4.6,18.3 5.1,37.96 5.2,57 0.3,167.99 0.2,335.98 0.2,503.98 0,20.79 0,41.61 1,62.37 8.3,173.07 163.5,347.72 379.8,333.92 128.6,-8.19 226.2,-73.2 291.9,-184.29 34.3,-57.94 47.7,-121.52 47.7,-188.38 -0.1,-172.79 -0.1,-345.58 0,-518.37 0,-15.99 -0.4,-32.06 0.9,-47.96 4.9,-57.95 47.6,-101.42 104.5,-107.2 61.1,-6.19 112.2,26.7 128.6,84.25 4.3,15.11 6,31.46 6.1,47.25 0.3,187.19 0.4,374.38 0.1,561.57 -0.1,51.45 -7.9,102.09 -21.7,151.57 -63.8,229 -262.3,402.81 -498.4,436.11 -146.7,20.67 -283.1,-7.53 -408,-88.22 -8,-5.17 -16.2,-10.14 -28.2,-17.66 z M 8904.95,3524.33 c 3.33,-7.06 6.28,-12.44 8.47,-18.12 2.88,-7.45 4.53,-15.41 7.78,-22.67 23.42,-52.14 75,-77.49 134.88,-66.61 51.25,9.33 89.87,53.14 93.63,107.1 1.11,15.93 0.62,31.98 0.63,47.98 0.02,324.71 0.02,649.44 -0.01,974.15 0,16 1.46,32.31 -1.18,47.89 -2.88,17 -7.01,34.89 -15.39,49.67 -25.18,44.44 -78.9,67.14 -127.33,56.49 -50.09,-11 -88.34,-51.74 -94.89,-102.4 -1.84,-14.19 -1.18,-28.74 -1.18,-43.13 -0.08,-174.35 0.05,-348.71 -0.22,-523.06 -0.04,-23.95 0.28,-48.27 -3.47,-71.79 -25.57,-160.24 -150.36,-279.95 -300.92,-301.6 -195.43,-28.11 -329.18,87.32 -382.26,204.34 -23.58,52 -33.95,106.22 -33.92,162.94 0.1,174.36 0.03,348.72 -0.02,523.08 0,14.39 0.45,28.84 -0.57,43.17 -5.54,77.47 -80.96,128.36 -154.87,104.81 -53.09,-16.92 -84.03,-59.5 -84.18,-120.28 -0.49,-193.55 -0.7,-387.11 0.5,-580.65 0.21,-34.92 4.62,-70.46 12.19,-104.59 64.73,-291.68 321.38,-474.76 575.49,-477.01 124.69,-1.1 241.2,24.66 344.79,97.35 6.42,4.51 13.55,8 22.05,12.94 z M 9951.04,697.262 c 4.91,-14.133 8.37,-26.43 13.34,-38.082 22.9,-53.578 75.82,-81.789 132.52,-71.141 53.3,10 93.7,55.332 97.6,109.953 0.7,11.137 0.4,22.367 0.4,33.547 0,332.561 0,665.111 0,997.661 0,12.78 0.4,25.64 -0.7,38.34 -5.8,61.9 -57.3,107.15 -120.6,106.5 -63.4,-0.65 -113.43,-46.64 -117.98,-109.06 -1.04,-14.32 -0.5,-28.77 -0.51,-43.15 -0.03,-171.08 0.27,-342.15 -0.33,-513.22 -0.1,-28.62 -1.71,-57.65 -6.67,-85.78 -27.48,-155.861 -151.93,-273.588 -312.88,-294.201 -142.09,-18.188 -293.11,55.742 -363.47,197.941 -26.01,52.57 -37.75,108.03 -37.58,166.7 0.51,177.47 0.16,354.93 0.1,532.4 -0.01,14.38 0.6,28.88 -0.95,43.13 -5.97,54.6 -49.8,98.71 -102.72,104.35 -59.74,6.35 -110.69,-23.01 -129.06,-76.87 -5.52,-16.18 -6.77,-34.44 -6.81,-51.77 -0.42,-190.25 -0.17,-380.51 -0.24,-570.76 -0.02,-43.42 5.51,-86.11 16.28,-128.08 73.11,-284.94 310.62,-429.549 498.77,-452.998 148,-18.453 286.46,4.32 412.27,88.187 8.97,5.981 18.84,10.621 29.22,16.403 z M 16460.5,1763.24 c -7,18.27 -11,32.18 -17.3,44.9 -24.9,49.62 -75.8,73.79 -132.5,63.87 -49.4,-8.63 -90.1,-54.34 -94.8,-107.23 -1.1,-12.72 -0.6,-25.59 -0.6,-38.38 0,-331.19 0,-662.38 0,-993.568 0,-11.203 -0.4,-22.441 0.4,-33.582 4.6,-64.75 56.4,-112.391 120.6,-112.949 64.2,-0.551 119.4,55.84 118.6,114.429 -0.2,14.399 0.3,28.801 0.3,43.2 0,171.191 0.1,342.39 -0.1,513.58 -0.1,38.63 3.7,76.59 14.1,113.84 37.9,135.48 154.7,241.72 296.7,260.2 180.5,23.53 309.1,-80.62 365.9,-186.08 29.4,-54.59 44.4,-112.37 44.2,-174.71 -0.6,-177.59 -0.2,-355.178 -0.2,-532.768 0,-14.402 -0.6,-28.91 0.9,-43.16 5.5,-51.641 41.8,-92.934 91.5,-105.32 49.1,-12.18 100.9,8.957 129.5,52.058 14.8,22.43 18.3,47.219 18.3,73.239 -0.2,192.004 -0.1,383.991 -0.3,575.981 -0.1,56.43 -10.2,111.23 -27.4,164.93 -82.4,256.28 -336,431.32 -596.8,418.7 -109.7,-5.3 -210.9,-33.37 -302.8,-93.93 -7.9,-5.16 -16.1,-9.82 -28.2,-17.25 z m -5253.2,1650.82 c 334,-8.51 647,273.66 646.9,639.81 -0.1,375.48 -308.9,648.85 -643.9,649.88 -346.2,1.05 -647.4,-285.57 -647,-646.66 0.3,-361.67 304.2,-650.23 644,-643.03 z m 5010.9,136.83 c 2.5,-19.02 3.3,-30.01 5.5,-40.71 20.4,-101.35 137.4,-119.52 195.1,-68.18 30.8,27.47 43.3,61.75 43.2,102.37 -0.3,175.87 0.5,351.75 -0.6,527.63 -0.4,65.78 -11.5,130.39 -32.4,193.1 -89.5,268.86 -394,520.26 -789.5,413.35 -318.4,-86.06 -519,-414.23 -456.9,-739.73 39.2,-205.26 156.5,-354.09 336.9,-453.78 179.1,-99 447.1,-102.64 648.6,32.78 14.3,9.66 28.9,19.14 50.1,33.17 z m -9541.31,386.58 c 20.37,0.37 37.72,0.94 55.06,0.94 270.39,0.06 540.78,0.03 811.17,0.07 15.99,0 32.09,-0.75 47.96,0.73 36.66,3.41 67.37,18.49 90.05,48.56 18.39,24.39 22.95,52.51 22.23,81.72 -1.57,64.2 -10.29,127.22 -29.44,188.92 -82.38,265.49 -390.66,529.8 -794.79,419.45 -293.45,-80.15 -565.49,-412.77 -429.94,-830.43 84.93,-261.71 338.31,-436.23 616.67,-433.45 145.8,1.45 276.67,44.65 390.8,136.28 9.95,7.99 20.39,15.91 28.41,25.66 33.63,40.97 39.4,86.64 17.81,134.68 -19.49,43.37 -62.64,66.32 -113.89,64.05 -30.27,-1.33 -55.34,-13.89 -78.06,-32.77 -83.24,-69.2 -179.94,-96.34 -286.27,-85.64 -162.17,16.31 -275.47,101.87 -341.44,250.43 -3.63,8.17 -3.78,17.89 -6.33,30.8 z M 14940.9,1111.96 c 21.7,0.3 39.1,0.74 56.4,0.74 270.3,0.05 540.6,0.03 810.9,0.05 16,0 32.1,-0.69 48,0.6 12.5,1.02 25.6,2.74 37.2,7.31 46.1,18.11 73.2,52.46 74.3,101.94 1,39.77 -1.1,80.18 -7.2,119.45 -44.7,284.66 -280.3,469.99 -478.1,515.01 -67.8,15.41 -135.9,19.09 -204.9,15.88 -72.7,-3.38 -142.2,-20.06 -208.9,-48.94 -207.5,-89.95 -354.4,-285.27 -382.5,-509.52 -20.5,-163.64 11.2,-316.078 108.5,-450.531 142,-196.347 335.3,-290.687 578.5,-276.148 127.7,7.648 243.1,51.32 344,131.129 11.3,8.91 22.8,17.922 32.4,28.449 38.8,42.32 41.8,109.684 7.6,154.992 -33.5,44.578 -94.2,59.32 -146.5,34.469 -12.8,-6.09 -24.5,-15.051 -35.7,-23.918 -97.7,-77.231 -208.3,-103.18 -329.4,-78.02 -137.6,28.637 -235.7,109.098 -293.6,237.478 -5,11.04 -6.7,23.58 -11,39.58 z m -8757.33,-0.04 c 21,0.31 38.28,0.78 55.56,0.78 270.31,0.05 540.62,0.03 810.92,0.05 16,0 32.06,-0.67 47.96,0.58 12.58,1 25.73,2.54 37.29,7.18 47.57,19.1 73.91,54.24 75.33,106.31 2.12,77.57 -9.8,152.96 -36.12,225.99 -103.51,287.14 -410.46,464.24 -711.53,415.63 -279.48,-45.13 -463.93,-268.34 -514.03,-450.21 -19.75,-71.68 -28.17,-144.15 -25.26,-218.17 4.28,-109.26 31.83,-212.189 91.8,-303.951 141.13,-215.898 340.16,-322.91 599.69,-308.269 127.81,7.219 243.24,51.101 344.16,130.93 11.27,8.921 22.74,17.902 32.42,28.421 38.66,42.071 41.72,109.649 7.8,155.051 -33.47,44.789 -93.88,59.5 -146.42,34.571 -12.83,-6.094 -24.65,-14.864 -35.87,-23.743 -97.63,-77.398 -208.3,-103.371 -329.25,-78.179 -139.54,29.078 -238.38,110.879 -295.59,241.859 -4.21,9.66 -5.31,20.67 -8.86,35.17 z m 7716.03,2825.56 c 21.9,0.35 40.9,0.93 59.9,0.93 271.9,0.06 543.9,-0.07 815.8,0.28 20.6,0.03 41.8,0.95 61.7,5.71 46.2,11.03 74.8,41.61 85,87.81 3.5,15.38 3.9,31.78 3.3,47.61 -2.5,62.56 -11.8,124.1 -31.4,183.77 -96.2,291.57 -431.7,535.4 -825.4,403.63 -285.1,-95.41 -522.4,-416.11 -400.6,-810.98 83.7,-271.37 347.8,-451.52 634.1,-442.09 138.8,4.57 263.3,47.07 372.6,133.11 10.1,7.9 20.2,15.91 29,25.13 34.6,36.42 42.9,93.08 20.9,138.46 -20.9,43.11 -62.6,65.96 -114.1,63.77 -30.3,-1.29 -55.3,-13.96 -78,-32.8 -83.2,-69.15 -179.9,-96.36 -286.2,-85.56 -162,16.46 -275.6,101.51 -341.1,250.5 -3.6,8.13 -3.3,17.94 -5.5,30.72 z M 11299.3,722.082 c 17.1,-11.121 26.4,-16.941 35.5,-23.121 169.4,-115.402 354.3,-141.031 549.3,-86.68 288.2,80.289 564.9,404.619 426,831.429 -96.1,295.2 -412.1,474.71 -718.4,423.88 -262.6,-43.57 -467.2,-261.63 -516.8,-476.95 -13.4,-58.2 -17.7,-116.74 -17.7,-176.04 0.1,-343.768 0,-687.549 0.1,-1031.33 0,-15.969 0.1,-31.989 1.3,-47.911 2.1,-28.519 15.2,-51.9293 36.3,-70.7301 37.3,-33.3281 81.3,-37.0586 125.8,-21.6797 44.4,15.3399 69.3,49.9414 75.5,96.7108 1.9,14.18 1.1,28.731 1.2,43.11 0,161.5 -0.1,322.992 0.1,484.492 0,15.558 1,31.14 1.8,54.82 z m -2793.03,0.469 c 0.27,-26.41 0.59,-43.742 0.59,-61.059 0.04,-156.703 0.02,-313.39 0.03,-470.082 0,-12.801 -0.38,-25.609 0.19,-38.371 3.49,-78.2577 60.11,-126.0077 137.88,-116.5077 55.78,6.8203 96.49,48.5703 101.2,104.5277 1.2,14.3 0.86,28.761 0.86,43.14 0.03,342.16 0.03,684.332 -0.01,1026.481 -0.01,19.18 -0.42,38.37 -0.86,57.55 -1.2,53.11 -11.1,104.76 -26.32,155.5 -80.92,269.79 -389.84,545.44 -812.01,422.17 -260.43,-76.04 -538.15,-375.2 -423.56,-799.42 56.85,-210.46 265.79,-422.539 525.6,-453.761 167.09,-20.078 321.07,10.14 460.4,106.761 8.92,6.192 18.28,11.739 36.01,23.071 z M 12348.6,3545.89 c 13.9,-9.22 23.1,-15.25 32.2,-21.4 175.1,-117.78 365.4,-140.37 564,-79.67 262.8,80.34 527.5,374 421.8,788.54 -65.6,256.81 -353.8,537.49 -758,455.41 -166.7,-33.83 -294.6,-127.19 -393.5,-262.57 -81.2,-111.19 -115,-237.83 -115.2,-374.15 -0.3,-348.73 -0.1,-697.47 0,-1046.2 0,-15.92 0.6,-32.1 3.4,-47.72 10.2,-57.94 55.2,-95.5 114.1,-96.49 60.6,-1.02 110,37.43 120.3,95.45 3.3,18.72 3.5,38.16 3.6,57.29 0.2,158.37 0,316.73 0.3,475.1 0.1,16.92 -3.4,34.61 7,56.41 z m 488.6,-1749.38 c -9.9,14.09 -16.5,24.83 -24.4,34.49 -33.2,40.31 -77.2,51.13 -125.4,39.16 -45.3,-11.26 -74.4,-42.41 -84.4,-88.85 -3,-13.92 -4.1,-28.5 -4.1,-42.77 -0.2,-337.45 -0.2,-674.89 -0.1,-1012.329 0,-12.731 0.4,-25.66 2.5,-38.18 10.4,-61.16 60,-101.902 120.8,-101.789 50.5,0.09 110.1,40.129 116.2,106.707 1.6,17.473 1.8,35.121 1.8,52.68 0.1,196.711 -0.2,393.411 0.4,590.111 0.1,30.25 0.4,61.41 7.4,90.55 28.6,120.62 144,224.93 299.1,206.13 142.3,-17.24 237.4,-144.47 237.5,-260.86 0,-15.98 0.2,-31.98 0.2,-47.97 0,-196.7 -0.2,-393.41 0.4,-590.121 0,-22.11 1.4,-45.168 7.8,-66.129 16.1,-53.641 70.4,-86.578 127,-80.34 53.7,5.91 97.8,49.461 103.7,103.539 1.8,17.422 1.5,35.133 1.5,52.703 0.1,196.707 0.1,393.408 0,590.118 0,35.3 1.8,70.3 11.4,104.52 30.6,109.78 146.2,217.11 303.9,193.68 156.1,-23.2 232.6,-160.39 231.3,-261.21 -0.2,-17.59 0.2,-35.17 0.2,-52.77 0,-195.11 -0.2,-390.221 0.3,-585.31 0.1,-20.571 1.3,-41.86 6.6,-61.54 13.7,-50.218 58.3,-83.05 110,-84.238 51,-1.183 99.1,30.067 114.9,78.059 5.8,17.75 7,37.668 7,56.601 0.5,214.297 0,428.598 0.4,642.888 0.3,109.43 -31.6,209.05 -97,295.5 -131.9,174.21 -307.5,242.59 -523.1,204.16 -95.8,-17.07 -176.1,-64.66 -246.3,-130.95 -12.4,-11.76 -22.1,-27.23 -42.4,-35.83 -81.5,97.39 -186.1,155.74 -311.1,172.45 -123.7,16.55 -242.4,-1.72 -354,-72.86 z m -8943.21,554.38 c 48.69,-2.01 112.6,-6.63 176.53,-6.94 247.92,-1.19 495.84,-1.66 743.76,-0.68 41.26,0.17 83.13,5.74 123.61,14.16 316.31,65.76 480.61,354.92 487.49,581.08 3.11,102.51 -1.67,205 -17.94,306.11 -13.69,85.08 -33.72,169.19 -52.73,253.34 -38.27,169.4 -101.35,330.18 -180.28,484.08 -78.86,153.76 -168.63,301.4 -274.86,438.37 -98.18,126.62 -203.07,247.24 -321.91,355 -176.16,159.72 -369.11,295.38 -579.28,407.29 -175.66,93.53 -358.07,169.27 -549.13,224.44 -104.65,30.23 -211.95,47.66 -319.33,64.28 -67.93,10.51 -136.05,19.86 -205.04,20.42 -53.54,0.44 -56.38,-2.13 -56.13,-56.7 0.58,-127.95 1.52,-255.9 1.61,-383.85 0.13,-175.95 -0.42,-351.9 -0.59,-527.86 -0.01,-14.38 0.28,-28.78 1.08,-43.13 0.81,-14.55 8.97,-23.78 23.08,-26.76 15.61,-3.3 31.33,-6.53 47.16,-8.34 101.92,-11.62 202.21,-31.82 299.66,-63.42 159.86,-51.81 303.39,-134.99 436.2,-236.86 209.52,-160.7 362.91,-363.09 451.37,-613.11 6.93,-19.59 15.55,-38.67 21.14,-58.62 13.8,-49.19 27.01,-98.58 38.97,-148.25 5.03,-20.89 -2.93,-30.61 -23.39,-32.52 -15.89,-1.48 -31.94,-1.63 -47.92,-1.73 -393.47,-2.49 -786.95,-4.88 -1180.42,-7.32 -65.66,-0.41 -66.85,-1.33 -66.87,-67.76 -0.06,-267.12 0.11,-534.25 0.28,-801.38 0.01,-12.77 0.1,-25.64 1.5,-38.31 1.92,-17.58 10.19,-25.63 28.23,-26.2 19.15,-0.62 38.36,1.11 57.54,1.11 307.12,0.09 614.23,0.06 936.61,0.06 z m -1984.55,903.74 c 0,-0.24 0,-0.49 0,-0.73 -180.77,0 -361.55,-0.01 -542.32,0 -12.8,0 -25.6,0.2 -38.4,0.06 -70.29,-0.78 -94.58,28.56 -81.59,100.52 8.2,45.43 19.14,90.82 33.95,134.5 61.79,182.21 152.69,348.57 281.85,491.95 122.12,135.57 264.71,245.41 428.2,327.53 158.92,79.82 329.44,120.41 503.38,149.28 45.82,7.6 53.82,14.86 54.83,61.04 0.07,3.19 0.03,6.39 0.03,9.59 0.01,292.76 0.04,585.52 0,878.28 0,11.19 0.37,22.5 -1.09,33.54 -2.42,18.41 -13.01,27.22 -32.5,28.69 -4.77,0.37 -9.62,0.41 -14.37,-0.03 -58.84,-5.46 -117.94,-9.06 -176.41,-17.15 -58.47,-8.09 -116.48,-19.86 -174.39,-31.54 -64.11,-12.94 -128.44,-24.5 -191.22,-44.16 -114.63,-35.89 -225.93,-79.53 -335.27,-129.33 -107.98,-49.18 -213.04,-103.77 -312.18,-168.28 -121.95,-79.35 -239.47,-165.15 -350.475,-259.9 C 857.723,4729.95 761.281,4634.48 672.676,4531.17 583.996,4427.78 506.883,4315.52 434.113,4200.75 366.488,4094.09 305.008,3983.49 256.574,3866.41 223.598,3786.69 188.641,3707.49 161.344,3625.79 133.543,3542.61 113.676,3456.76 90.9844,3371.9 61.1797,3260.42 47.6797,3145.91 34.707,3031.83 22.9766,2928.73 17.1523,2824.68 21.9414,2720.54 c 3.4531,-75.06 7.4375,-150.12 9.2578,-225.23 1.1328,-46.61 6.5156,-92.36 16.7813,-137.69 1.7656,-7.78 2.2656,-15.83 3.8281,-23.66 17.7734,-89.24 32.7305,-179.18 54.3244,-267.49 20.84,-85.26 49.094,-168.56 79.894,-251.02 50.477,-135.12 112.313,-264.72 180.243,-391.73 58.21,-108.86 125.293,-212.01 197.781,-311.65 36.656,-50.39 74.762,-99.95 115.324,-147.211 43.719,-50.937 90.395,-99.429 137.07,-147.738 34.43,-35.629 69.922,-70.379 106.672,-103.601 145.313,-131.34 304.223,-243.821 473.293,-342.661 146.9,-85.867 300.57,-156.5 461.48,-211.019 125.66,-42.578 254.03,-75.5392 385.17,-96.6798 64.61,-10.4219 129.3,-20.6094 194.21,-28.918 26.81,-3.4336 54.3,-2.5508 81.44,-1.9219 17.21,0.3906 26.9,9.6289 28.87,26.3594 1.87,15.8008 1.69,31.9101 1.7,47.8713 0.09,291.168 0.08,582.32 0.08,873.48 0,9.598 0.25,19.211 -0.14,28.799 -1.38,33.76 -5.24,38.39 -36.99,45.2 -9.38,2.02 -18.73,4.67 -28.23,5.63 -79.92,8.03 -157.16,28.04 -233.2,52.92 -59.2,19.37 -119.06,37.41 -176.7,60.78 -138.99,56.37 -262.5,138.84 -379.36,231.94 -111.44,88.8 -199.47,197.46 -274.65,317.72 -39.13,62.58 -71.68,128.16 -102.06,195.26 -23.19,51.21 -43.8,103 -55.15,158.06 -12.57,61 -24.54,122.14 -35.43,183.46 -3.04,17.1 -2.96,35.19 -1.39,52.56 2.64,28.99 18.95,47.9 47.39,52.54 26.68,4.36 54.01,6.4 81.08,6.52 369.54,1.54 739.09,2.58 1108.63,3.74 14.4,0.05 28.82,-0.36 43.19,0.31 25.62,1.2 31.83,5.7 35.44,29.58 3.57,23.65 6.9,47.65 6.95,71.49 0.53,238.36 0.37,476.73 0.3,715.1 0,11.16 -0.1,22.48 -1.83,33.45 -2.68,16.95 -11.43,25.82 -28.35,27.7 -15.84,1.77 -31.92,1.77 -47.89,1.78 -187.18,0.1 -374.35,0.06 -561.53,0.06 z M 2889.6,0 C 1926.4,0 963.203,0 0,0 c 0,1833.6 0,3667.2 0,5500.8 6137.6,0 12275.2,0 18412.8,0 0,-1584 0,-3168 0,-4751.999 -2.5,1.781 -6.2,3.031 -7.2,5.418 -20.9,50.742 -60.3,70.961 -113.3,72.101 -23.8,0.52 -47.9,3.571 -71.2,8.641 -80.1,17.461 -128.8,67.328 -144.8,147.629 -4.9,24.94 -7.8,50.71 -7.9,76.11 -0.7,177.49 -0.4,354.98 -0.3,532.48 0,12.41 1.7,24.83 2.8,40.1 16.2,1.16 30.1,2.82 44,3.04 33.6,0.52 67.2,-1.12 100.7,0.8 55.9,3.19 99.2,39.37 111.2,89.64 20.5,86.12 -46,151.73 -112.2,149.61 -35.2,-1.13 -70.4,-0.37 -105.6,0.27 -12.3,0.22 -24.5,2.69 -39.2,4.41 -0.7,18.54 -1.7,34.25 -1.7,49.96 -0.2,115.13 -0.1,230.26 -0.2,345.4 0,14.38 0.5,28.82 -0.6,43.15 -4.4,59.69 -53.7,107.15 -113.2,109.73 -61.6,2.66 -116.8,-42.55 -124.8,-103.11 -1.8,-14.18 -1.2,-28.73 -1.2,-43.1 0,-118.33 0.1,-236.66 -0.2,-354.99 0,-15.49 3.6,-31.81 -6.9,-49.4 -18,-0.94 -36.8,-1.61 -55.6,-2.97 -50,-3.6 -83.6,-30.56 -101.4,-75.83 -18.7,-47.8 -7.8,-91.21 27.5,-128.03 23.4,-24.35 53.2,-34.15 86.5,-35.45 15.4,-0.61 31.7,3.52 48.3,-6.73 0.6,-12.36 1.6,-24.91 1.7,-37.46 0.2,-47.98 0.1,-95.95 0.1,-143.92 0,-134.32 0,-268.63 0.1,-402.96 0,-66 8.9,-130.809 29.7,-193.5 37.7,-113.61 113,-191.289 226.1,-230.981 70.1,-24.589 142.9,-34.148 217,-32.23 45.1,1.18 79.1,21.973 100.9,62.031 2.8,5.051 7.2,9.18 10.9,13.742 0,-220.8 0,-441.601 0,-662.402 C 13280,0 8147.2,0 3014.4,0 c 34.52,5.80078 68.85,13.25 103.59,17.1016 119.45,13.25 236.28,40.2695 353.11,66.8007 154.65,35.1097 303.1,89.9567 451.53,144.9377 150.44,55.719 293.21,127.582 432.62,205.742 135.67,76.078 259.46,169.598 376.22,272.629 100.68,88.828 183.62,190.809 247.45,309.189 46.59,86.37 70.09,177.37 73.57,275.17 5.43,152.94 -43.82,287.56 -139.66,403.34 -106.83,129.06 -243.7,210.44 -412.84,229.98 -117.11,13.53 -230.27,-0.29 -334.36,-59.32 -40.18,-22.8 -78.96,-48.7 -115.88,-76.51 -67.04,-50.47 -119.93,-114.9 -169.89,-181.7 -86.83,-116.08 -189.61,-215.71 -305.16,-303.22 -138.22,-104.68 -296.17,-162.89 -462.71,-200.23 -63.74,-14.29 -129.55,-19.34 -194.46,-28.34 -44.16,-6.13 -48.2,-10.41 -48.38,-54.07 -0.01,-1.6 0.07,-3.2 0.08,-4.8 0.85,-199.97 2.01,-399.938 2.44,-599.911 0.25,-118.387 -0.36,-236.777 -1.31,-355.1601 C 2870.18,38.5195 2871.63,16.9492 2889.6,0"
         style="fill:#ffffff;fill-opacity:1;fill-rule:nonzero;stroke:none"
         id="path14" /><path
         d="m 2889.6,0 c -17.97,16.9492 -19.42,38.5195 -19.24,61.6289 0.95,118.3831 1.56,236.7731 1.31,355.1601 -0.43,199.973 -1.59,399.941 -2.44,599.911 -0.01,1.6 -0.09,3.2 -0.08,4.8 0.18,43.66 4.22,47.94 48.38,54.07 64.91,9 130.72,14.05 194.46,28.34 166.54,37.34 324.49,95.55 462.71,200.23 115.55,87.51 218.33,187.14 305.16,303.22 49.96,66.8 102.85,131.23 169.89,181.7 36.92,27.81 75.7,53.71 115.88,76.51 104.09,59.03 217.25,72.85 334.36,59.32 169.14,-19.54 306.01,-100.92 412.84,-229.98 95.84,-115.78 145.09,-250.4 139.66,-403.34 -3.48,-97.8 -26.98,-188.8 -73.57,-275.17 C 4915.09,898.02 4832.15,796.039 4731.47,707.211 4614.71,604.18 4490.92,510.66 4355.25,434.582 4215.84,356.422 4073.07,284.559 3922.63,228.84 3774.2,173.859 3625.75,119.012 3471.1,83.9023 3354.27,57.3711 3237.44,30.3516 3117.99,17.1016 3083.25,13.25 3048.92,5.80078 3014.4,0 c -41.6,0 -83.2,0 -124.8,0"
         style="fill:#231f20;fill-opacity:1;fill-rule:nonzero;stroke:none"
         id="path16" /><path
         d="m 18412.8,662.402 c -3.7,-4.562 -8.1,-8.691 -10.9,-13.742 -21.8,-40.058 -55.8,-60.851 -100.9,-62.031 -74.1,-1.918 -146.9,7.641 -217,32.23 -113.1,39.692 -188.4,117.371 -226.1,230.981 -20.8,62.691 -29.7,127.5 -29.7,193.5 -0.1,134.33 -0.1,268.64 -0.1,402.96 0,47.97 0.1,95.94 -0.1,143.92 -0.1,12.55 -1.1,25.1 -1.7,37.46 -16.6,10.25 -32.9,6.12 -48.3,6.73 -33.3,1.3 -63.1,11.1 -86.5,35.45 -35.3,36.82 -46.2,80.23 -27.5,128.03 17.8,45.27 51.4,72.23 101.4,75.83 18.8,1.36 37.6,2.03 55.6,2.97 10.5,17.59 6.9,33.91 6.9,49.4 0.3,118.33 0.2,236.66 0.2,354.99 0,14.37 -0.6,28.92 1.2,43.1 8,60.56 63.2,105.77 124.8,103.11 59.5,-2.58 108.8,-50.04 113.2,-109.73 1.1,-14.33 0.6,-28.77 0.6,-43.15 0.1,-115.14 0,-230.27 0.2,-345.4 0,-15.71 1,-31.42 1.7,-49.96 14.7,-1.72 26.9,-4.19 39.2,-4.41 35.2,-0.64 70.4,-1.4 105.6,-0.27 66.2,2.12 132.7,-63.49 112.2,-149.61 -12,-50.27 -55.3,-86.45 -111.2,-89.64 -33.5,-1.92 -67.1,-0.28 -100.7,-0.8 -13.9,-0.22 -27.8,-1.88 -44,-3.04 -1.1,-15.27 -2.8,-27.69 -2.8,-40.1 -0.1,-177.5 -0.4,-354.99 0.3,-532.48 0.1,-25.4 3,-51.17 7.9,-76.11 16,-80.301 64.7,-130.168 144.8,-147.629 23.3,-5.07 47.4,-8.121 71.2,-8.641 53,-1.14 92.4,-21.359 113.3,-72.101 1,-2.387 4.7,-3.637 7.2,-5.418 0,-28.801 0,-57.602 0,-86.399"
         style="fill:#231f20;fill-opacity:1;fill-rule:nonzero;stroke:none"
         id="path18" /><path
         d="m 1909.44,3254.63 c 187.18,0 374.35,0.04 561.53,-0.06 15.97,-0.01 32.05,-0.01 47.89,-1.78 16.92,-1.88 25.67,-10.75 28.35,-27.7 1.73,-10.97 1.83,-22.29 1.83,-33.45 0.07,-238.37 0.23,-476.74 -0.3,-715.1 -0.05,-23.84 -3.38,-47.84 -6.95,-71.49 -3.61,-23.88 -9.82,-28.38 -35.44,-29.58 -14.37,-0.67 -28.79,-0.26 -43.19,-0.31 -369.54,-1.16 -739.09,-2.2 -1108.63,-3.74 -27.07,-0.12 -54.4,-2.16 -81.08,-6.52 -28.44,-4.64 -44.75,-23.55 -47.39,-52.54 -1.57,-17.37 -1.65,-35.46 1.39,-52.56 10.89,-61.32 22.86,-122.46 35.43,-183.46 11.35,-55.06 31.96,-106.85 55.15,-158.06 30.38,-67.1 62.93,-132.68 102.06,-195.26 75.18,-120.26 163.21,-228.92 274.65,-317.72 116.86,-93.1 240.37,-175.57 379.36,-231.94 57.64,-23.37 117.5,-41.41 176.7,-60.78 76.04,-24.88 153.28,-44.89 233.2,-52.92 9.5,-0.96 18.85,-3.61 28.23,-5.63 31.75,-6.81 35.61,-11.44 36.99,-45.2 0.39,-9.588 0.14,-19.201 0.14,-28.799 0,-291.16 0.01,-582.312 -0.08,-873.48 -0.01,-15.9612 0.17,-32.0705 -1.7,-47.8713 -1.97,-16.7305 -11.66,-25.9688 -28.87,-26.3594 -27.14,-0.6289 -54.63,-1.5117 -81.44,1.9219 -64.91,8.3086 -129.6,18.4961 -194.21,28.918 -131.14,21.1406 -259.51,54.1018 -385.17,96.6798 -160.91,54.519 -314.58,125.152 -461.48,211.019 -169.07,98.84 -327.98,211.321 -473.293,342.661 -36.75,33.222 -72.242,67.972 -106.672,103.601 -46.675,48.309 -93.351,96.801 -137.07,147.738 -40.562,47.261 -78.668,96.821 -115.324,147.211 -72.488,99.64 -139.571,202.79 -197.781,311.65 -67.93,127.01 -129.766,256.61 -180.243,391.73 -30.8,82.46 -59.054,165.76 -79.894,251.02 -21.5939,88.31 -36.551,178.25 -54.3244,267.49 -1.5625,7.83 -2.0625,15.88 -3.8281,23.66 -10.2657,45.33 -15.6485,91.08 -16.7813,137.69 -1.8203,75.11 -5.8047,150.17 -9.2578,225.23 -4.7891,104.14 1.0352,208.19 12.7656,311.29 12.9727,114.08 26.4727,228.59 56.2774,340.07 22.6916,84.86 42.5586,170.71 70.3596,253.89 27.297,81.7 62.254,160.9 95.23,240.62 48.434,117.08 109.914,227.68 177.539,334.34 72.77,114.77 149.883,227.03 238.563,330.42 88.605,103.31 185.047,198.78 288.789,287.32 111.005,94.75 228.525,180.55 350.475,259.9 99.14,64.51 204.2,119.1 312.18,168.28 109.34,49.8 220.64,93.44 335.27,129.33 62.78,19.66 127.11,31.22 191.22,44.16 57.91,11.68 115.92,23.45 174.39,31.54 58.47,8.09 117.57,11.69 176.41,17.15 4.75,0.44 9.6,0.4 14.37,0.03 19.49,-1.47 30.08,-10.28 32.5,-28.69 1.46,-11.04 1.09,-22.35 1.09,-33.54 0.04,-292.76 0.01,-585.52 0,-878.28 0,-3.2 0.04,-6.4 -0.03,-9.59 -1.01,-46.18 -9.01,-53.44 -54.83,-61.04 -173.94,-28.87 -344.46,-69.46 -503.38,-149.28 -163.49,-82.12 -306.08,-191.96 -428.2,-327.53 -129.16,-143.38 -220.06,-309.74 -281.85,-491.95 -14.81,-43.68 -25.75,-89.07 -33.95,-134.5 -12.99,-71.96 11.3,-101.3 81.59,-100.52 12.8,0.14 25.6,-0.06 38.4,-0.06 180.77,-0.01 361.55,0 542.32,0 0,0.24 0,0.49 0,0.73"
         style="fill:#3c6dbe;fill-opacity:1;fill-rule:nonzero;stroke:none"
         id="path20" /><path
         d="m 3893.99,2350.89 c -322.38,0 -629.49,0.03 -936.61,-0.06 -19.18,0 -38.39,-1.73 -57.54,-1.11 -18.04,0.57 -26.31,8.62 -28.23,26.2 -1.4,12.67 -1.49,25.54 -1.5,38.31 -0.17,267.13 -0.34,534.26 -0.28,801.38 0.02,66.43 1.21,67.35 66.87,67.76 393.47,2.44 786.95,4.83 1180.42,7.32 15.98,0.1 32.03,0.25 47.92,1.73 20.46,1.91 28.42,11.63 23.39,32.52 -11.96,49.67 -25.17,99.06 -38.97,148.25 -5.59,19.95 -14.21,39.03 -21.14,58.62 -88.46,250.02 -241.85,452.41 -451.37,613.11 -132.81,101.87 -276.34,185.05 -436.2,236.86 -97.45,31.6 -197.74,51.8 -299.66,63.42 -15.83,1.81 -31.55,5.04 -47.16,8.34 -14.11,2.98 -22.27,12.21 -23.08,26.76 -0.8,14.35 -1.09,28.75 -1.08,43.13 0.17,175.96 0.72,351.91 0.59,527.86 -0.09,127.95 -1.03,255.9 -1.61,383.85 -0.25,54.57 2.59,57.14 56.13,56.7 68.99,-0.56 137.11,-9.91 205.04,-20.42 107.38,-16.62 214.68,-34.05 319.33,-64.28 191.06,-55.17 373.47,-130.91 549.13,-224.44 210.17,-111.91 403.12,-247.57 579.28,-407.29 118.84,-107.76 223.73,-228.38 321.91,-355 106.23,-136.97 196,-284.61 274.86,-438.37 78.93,-153.9 142.01,-314.68 180.28,-484.08 19.01,-84.15 39.04,-168.26 52.73,-253.34 16.27,-101.11 21.05,-203.6 17.94,-306.11 -6.88,-226.16 -171.18,-515.32 -487.49,-581.08 -40.48,-8.42 -82.35,-13.99 -123.61,-14.16 -247.92,-0.98 -495.84,-0.51 -743.76,0.68 -63.93,0.31 -127.84,4.93 -176.53,6.94"
         style="fill:#231f20;fill-opacity:1;fill-rule:nonzero;stroke:none"
         id="path22" /><path
         d="m 12837.2,1796.51 c 111.6,71.14 230.3,89.41 354,72.86 125,-16.71 229.6,-75.06 311.1,-172.45 20.3,8.6 30,24.07 42.4,35.83 70.2,66.29 150.5,113.88 246.3,130.95 215.6,38.43 391.2,-29.95 523.1,-204.16 65.4,-86.45 97.3,-186.07 97,-295.5 -0.4,-214.29 0.1,-428.591 -0.4,-642.888 0,-18.933 -1.2,-38.851 -7,-56.601 -15.8,-47.992 -63.9,-79.242 -114.9,-78.059 -51.7,1.188 -96.3,34.02 -110,84.238 -5.3,19.68 -6.5,40.969 -6.6,61.54 -0.5,195.089 -0.3,390.2 -0.3,585.31 0,17.6 -0.4,35.18 -0.2,52.77 1.3,100.82 -75.2,238.01 -231.3,261.21 -157.7,23.43 -273.3,-83.9 -303.9,-193.68 -9.6,-34.22 -11.4,-69.22 -11.4,-104.52 0.1,-196.71 0.1,-393.411 0,-590.118 0,-17.57 0.3,-35.281 -1.5,-52.703 -5.9,-54.078 -50,-97.629 -103.7,-103.539 -56.6,-6.238 -110.9,26.699 -127,80.34 -6.4,20.961 -7.8,44.019 -7.8,66.129 -0.6,196.711 -0.4,393.421 -0.4,590.121 0,15.99 -0.2,31.99 -0.2,47.97 -0.1,116.39 -95.2,243.62 -237.5,260.86 -155.1,18.8 -270.5,-85.51 -299.1,-206.13 -7,-29.14 -7.3,-60.3 -7.4,-90.55 -0.6,-196.7 -0.3,-393.4 -0.4,-590.111 0,-17.559 -0.2,-35.207 -1.8,-52.68 -6.1,-66.578 -65.7,-106.617 -116.2,-106.707 -60.8,-0.113 -110.4,40.629 -120.8,101.789 -2.1,12.52 -2.5,25.449 -2.5,38.18 -0.1,337.439 -0.1,674.879 0.1,1012.329 0,14.27 1.1,28.85 4.1,42.77 10,46.44 39.1,77.59 84.4,88.85 48.2,11.97 92.2,1.15 125.4,-39.16 7.9,-9.66 14.5,-20.4 24.4,-34.49"
         style="fill:#231f20;fill-opacity:1;fill-rule:nonzero;stroke:none"
         id="path24" /><path
         d="m 12745.7,3654.49 c 202.6,-4.57 402.7,165.59 403,403.36 0.3,222.43 -180.3,404.43 -402.7,404.6 -243.6,0.19 -406.2,-202.78 -405,-406.69 1.3,-217 182.2,-405.62 404.7,-401.27 z m -397.1,-108.6 c -10.4,-21.8 -6.9,-39.49 -7,-56.41 -0.3,-158.37 -0.1,-316.73 -0.3,-475.1 -0.1,-19.13 -0.3,-38.57 -3.6,-57.29 -10.3,-58.02 -59.7,-96.47 -120.3,-95.45 -58.9,0.99 -103.9,38.55 -114.1,96.49 -2.8,15.62 -3.4,31.8 -3.4,47.72 -0.1,348.73 -0.3,697.47 0,1046.2 0.2,136.32 34,262.96 115.2,374.15 98.9,135.38 226.8,228.74 393.5,262.57 404.2,82.08 692.4,-198.6 758,-455.41 105.7,-414.54 -159,-708.2 -421.8,-788.54 -198.6,-60.7 -388.9,-38.11 -564,79.67 -9.1,6.15 -18.3,12.18 -32.2,21.4"
         style="fill:#231f20;fill-opacity:1;fill-rule:nonzero;stroke:none"
         id="path26" /><path
         d="m 8506.76,1228.67 c 3.97,218.4 -182.53,404.36 -399.34,406.54 -214.64,2.16 -406.65,-172.42 -408.08,-402.48 -1.39,-223.65 181.14,-407.621 404.01,-406.558 239.81,1.137 406.23,203.148 403.41,402.498 z m -0.49,-506.119 c -17.73,-11.332 -27.09,-16.879 -36.01,-23.071 -139.33,-96.621 -293.31,-126.839 -460.4,-106.761 -259.81,31.222 -468.75,243.301 -525.6,453.761 -114.59,424.22 163.13,723.38 423.56,799.42 422.17,123.27 731.09,-152.38 812.01,-422.17 15.22,-50.74 25.12,-102.39 26.32,-155.5 0.44,-19.18 0.85,-38.37 0.86,-57.55 0.04,-342.149 0.04,-684.321 0.01,-1026.481 0,-14.379 0.34,-28.84 -0.86,-43.14 -4.71,-55.9574 -45.42,-97.7074 -101.2,-104.5277 -77.77,-9.5 -134.39,38.25 -137.88,116.5077 -0.57,12.762 -0.19,25.57 -0.19,38.371 -0.01,156.692 0.01,313.379 -0.03,470.082 0,17.317 -0.32,34.649 -0.59,61.059"
         style="fill:#231f20;fill-opacity:1;fill-rule:nonzero;stroke:none"
         id="path28" /><path
         d="m 11701.5,1634.26 c -222.5,4.45 -402.7,-184.99 -404.7,-400.25 -1.9,-201.29 158.6,-406.08 402.9,-407.811 221.9,-1.558 406.7,183.791 405.2,405.981 -1.4,233.01 -198.1,406.69 -403.4,402.08 z m -402.2,-912.178 c -0.8,-23.68 -1.8,-39.262 -1.8,-54.82 -0.2,-161.5 -0.1,-322.992 -0.1,-484.492 -0.1,-14.379 0.7,-28.93 -1.2,-43.11 -6.2,-46.7694 -31.1,-81.3709 -75.5,-96.7108 -44.5,-15.3789 -88.5,-11.6484 -125.8,21.6797 -21.1,18.8008 -34.2,42.2111 -36.3,70.7301 -1.2,15.922 -1.3,31.942 -1.3,47.911 -0.1,343.781 0,687.562 -0.1,1031.33 0,59.3 4.3,117.84 17.7,176.04 49.6,215.32 254.2,433.38 516.8,476.95 306.3,50.83 622.3,-128.68 718.4,-423.88 138.9,-426.81 -137.8,-751.14 -426,-831.429 -195,-54.351 -379.9,-28.722 -549.3,86.68 -9.1,6.18 -18.4,12 -35.5,23.121"
         style="fill:#231f20;fill-opacity:1;fill-rule:nonzero;stroke:none"
         id="path30" /><path
         d="m 13899.4,4181.56 c 16,-1.23 28.4,-2.91 40.8,-3 44.7,-0.34 89.4,-0.14 134.1,-0.14 178.9,-0.01 357.7,-0.13 536.6,0.21 16.8,0.03 34.7,-3.94 50.4,5.22 -25.4,146.31 -204.5,277.74 -377.6,279.08 -176,1.36 -355.9,-127.88 -384.3,-281.37 z m 0.2,-244.08 c 2.2,-12.78 1.9,-22.59 5.5,-30.72 65.5,-148.99 179.1,-234.04 341.1,-250.5 106.3,-10.8 203,16.41 286.2,85.56 22.7,18.84 47.7,31.51 78,32.8 51.5,2.19 93.2,-20.66 114.1,-63.77 22,-45.38 13.7,-102.04 -20.9,-138.46 -8.8,-9.22 -18.9,-17.23 -29,-25.13 -109.3,-86.04 -233.8,-128.54 -372.6,-133.11 -286.3,-9.43 -550.4,170.72 -634.1,442.09 -121.8,394.87 115.5,715.57 400.6,810.98 393.7,131.77 729.2,-112.06 825.4,-403.63 19.6,-59.67 28.9,-121.21 31.4,-183.77 0.6,-15.83 0.2,-32.23 -3.3,-47.61 -10.2,-46.2 -38.8,-76.78 -85,-87.81 -19.9,-4.76 -41.1,-5.68 -61.7,-5.71 -271.9,-0.35 -543.9,-0.22 -815.8,-0.28 -19,0 -38,-0.58 -59.9,-0.93"
         style="fill:#231f20;fill-opacity:1;fill-rule:nonzero;stroke:none"
         id="path32" /><path
         d="m 6950.22,1354 c -2.12,22.92 -10.04,38.46 -17.69,54.02 -83.61,170.08 -285.61,270.98 -485.71,208.08 -121.16,-38.08 -208.47,-114.98 -256.5,-233.91 -3.25,-8.04 -3.38,-17.34 -5.35,-28.19 255.58,0 507.88,0 765.25,0 z m -766.65,-242.08 c 3.55,-14.5 4.65,-25.51 8.86,-35.17 57.21,-130.98 156.05,-212.781 295.59,-241.859 120.95,-25.192 231.62,0.781 329.25,78.179 11.22,8.879 23.04,17.649 35.87,23.743 52.54,24.929 112.95,10.218 146.42,-34.571 33.92,-45.402 30.86,-112.98 -7.8,-155.051 -9.68,-10.519 -21.15,-19.5 -32.42,-28.421 -100.92,-79.829 -216.35,-123.711 -344.16,-130.93 -259.53,-14.641 -458.56,92.371 -599.69,308.269 -59.97,91.762 -87.52,194.691 -91.8,303.951 -2.91,74.02 5.51,146.49 25.26,218.17 50.1,181.87 234.55,405.08 514.03,450.21 301.07,48.61 608.02,-128.49 711.53,-415.63 26.32,-73.03 38.24,-148.42 36.12,-225.99 -1.42,-52.07 -27.76,-87.21 -75.33,-106.31 -11.56,-4.64 -24.71,-6.18 -37.29,-7.18 -15.9,-1.25 -31.96,-0.58 -47.96,-0.58 -270.3,-0.02 -540.61,0 -810.92,-0.05 -17.28,0 -34.56,-0.47 -55.56,-0.78"
         style="fill:#231f20;fill-opacity:1;fill-rule:nonzero;stroke:none"
         id="path34" /><path
         d="m 15706.2,1354.06 c 0.4,24.25 -9,39.43 -16.6,54.85 -88.7,179.16 -304.6,276.33 -508.4,199.51 -108.4,-40.85 -186.9,-114.32 -231.9,-221.89 -3.9,-9.34 -4.2,-20.22 -6.5,-32.47 255.8,0 507.9,0 763.4,0 z m -765.3,-242.1 c 4.3,-16 6,-28.54 11,-39.58 57.9,-128.38 156,-208.841 293.6,-237.478 121.1,-25.16 231.7,0.789 329.4,78.02 11.2,8.867 22.9,17.828 35.7,23.918 52.3,24.851 113,10.109 146.5,-34.469 34.2,-45.308 31.2,-112.672 -7.6,-154.992 -9.6,-10.527 -21.1,-19.539 -32.4,-28.449 -100.9,-79.809 -216.3,-123.481 -344,-131.129 -243.2,-14.539 -436.5,79.801 -578.5,276.148 -97.3,134.453 -129,286.891 -108.5,450.531 28.1,224.25 175,419.57 382.5,509.52 66.7,28.88 136.2,45.56 208.9,48.94 69,3.21 137.1,-0.47 204.9,-15.88 197.8,-45.02 433.4,-230.35 478.1,-515.01 6.1,-39.27 8.2,-79.68 7.2,-119.45 -1.1,-49.48 -28.2,-83.83 -74.3,-101.94 -11.6,-4.57 -24.7,-6.29 -37.2,-7.31 -15.9,-1.29 -32,-0.6 -48,-0.6 -270.3,-0.02 -540.6,0 -810.9,-0.05 -17.3,0 -34.7,-0.44 -56.4,-0.74"
         style="fill:#231f20;fill-opacity:1;fill-rule:nonzero;stroke:none"
         id="path36" /><path
         d="m 7441.13,4181.93 c -1.78,28.97 -13.36,48.28 -23.96,67.59 -114.04,207.66 -393.61,290.27 -610.51,125.66 -57.25,-43.46 -99.15,-99.18 -124.85,-166.5 -3.04,-7.95 -2.28,-17.34 -3.28,-26.02 47.33,-6.16 550.02,-8.8 731.09,-4.08 9.24,0.23 18.45,1.91 31.51,3.35 z m -764.24,-244.46 c 2.55,-12.91 2.7,-22.63 6.33,-30.8 65.97,-148.56 179.27,-234.12 341.44,-250.43 106.33,-10.7 203.03,16.44 286.27,85.64 22.72,18.88 47.79,31.44 78.06,32.77 51.25,2.27 94.4,-20.68 113.89,-64.05 21.59,-48.04 15.82,-93.71 -17.81,-134.68 -8.02,-9.75 -18.46,-17.67 -28.41,-25.66 -114.13,-91.63 -245,-134.83 -390.8,-136.28 -278.36,-2.78 -531.74,171.74 -616.67,433.45 -135.55,417.66 136.49,750.28 429.94,830.43 404.13,110.35 712.41,-153.96 794.79,-419.45 19.15,-61.7 27.87,-124.72 29.44,-188.92 0.72,-29.21 -3.84,-57.33 -22.23,-81.72 -22.68,-30.07 -53.39,-45.15 -90.05,-48.56 -15.87,-1.48 -31.97,-0.73 -47.96,-0.73 -270.39,-0.04 -540.78,-0.01 -811.17,-0.07 -17.34,0 -34.69,-0.57 -55.06,-0.94"
         style="fill:#231f20;fill-opacity:1;fill-rule:nonzero;stroke:none"
         id="path38" /><path
         d="m 15815.8,3654.48 c 202.5,-5.43 403.5,163.2 405,401.48 1.3,223.47 -179.3,405.26 -400.9,406.48 -244.1,1.34 -407.2,-201.54 -406.9,-404.79 0.5,-217.87 181.2,-406.55 402.8,-403.17 z m 402.4,-103.59 c -21.2,-14.03 -35.8,-23.51 -50.1,-33.17 -201.5,-135.42 -469.5,-131.78 -648.6,-32.78 -180.4,99.69 -297.7,248.52 -336.9,453.78 -62.1,325.5 138.5,653.67 456.9,739.73 395.5,106.91 700,-144.49 789.5,-413.35 20.9,-62.71 32,-127.32 32.4,-193.1 1.1,-175.88 0.3,-351.76 0.6,-527.63 0.1,-40.62 -12.4,-74.9 -43.2,-102.37 -57.7,-51.34 -174.7,-33.17 -195.1,68.18 -2.2,10.7 -3,21.69 -5.5,40.71"
         style="fill:#231f20;fill-opacity:1;fill-rule:nonzero;stroke:none"
         id="path40" /><path
         d="m 11206.6,3654.49 c 204.2,-5.94 403.9,163.81 406.1,400.28 2.1,223.94 -179.8,408.49 -404.4,407.67 -243.7,-0.88 -403.1,-203.65 -403.3,-403.58 -0.1,-218.96 181.1,-407.22 401.6,-404.37 z m 0.7,-240.43 c -339.8,-7.2 -643.7,281.36 -644,643.03 -0.4,361.09 300.8,647.71 647,646.66 335,-1.03 643.8,-274.4 643.9,-649.88 0.1,-366.15 -312.9,-648.32 -646.9,-639.81"
         style="fill:#231f20;fill-opacity:1;fill-rule:nonzero;stroke:none"
         id="path42" /><path
         d="m 16460.5,1763.24 c 12.1,7.43 20.3,12.09 28.2,17.25 91.9,60.56 193.1,88.63 302.8,93.93 260.8,12.62 514.4,-162.42 596.8,-418.7 17.2,-53.7 27.3,-108.5 27.4,-164.93 0.2,-191.99 0.1,-383.977 0.3,-575.981 0,-26.02 -3.5,-50.809 -18.3,-73.239 -28.6,-43.101 -80.4,-64.238 -129.5,-52.058 -49.7,12.386 -86,53.679 -91.5,105.32 -1.5,14.25 -0.9,28.758 -0.9,43.16 0,177.59 -0.4,355.178 0.2,532.768 0.2,62.34 -14.8,120.12 -44.2,174.71 -56.8,105.46 -185.4,209.61 -365.9,186.08 -142,-18.48 -258.8,-124.72 -296.7,-260.2 -10.4,-37.25 -14.2,-75.21 -14.1,-113.84 0.2,-171.19 0.1,-342.389 0.1,-513.58 0,-14.399 -0.5,-28.801 -0.3,-43.2 0.8,-58.589 -54.4,-114.98 -118.6,-114.429 -64.2,0.558 -116,48.199 -120.6,112.949 -0.8,11.141 -0.4,22.379 -0.4,33.582 0,331.188 0,662.378 0,993.568 0,12.79 -0.5,25.66 0.6,38.38 4.7,52.89 45.4,98.6 94.8,107.23 56.7,9.92 107.6,-14.25 132.5,-63.87 6.3,-12.72 10.3,-26.63 17.3,-44.9"
         style="fill:#231f20;fill-opacity:1;fill-rule:nonzero;stroke:none"
         id="path44" /><path
         d="m 9951.04,697.262 c -10.38,-5.782 -20.25,-10.422 -29.22,-16.403 -125.81,-83.867 -264.27,-106.64 -412.27,-88.187 -188.15,23.449 -425.66,168.058 -498.77,452.998 -10.77,41.97 -16.3,84.66 -16.28,128.08 0.07,190.25 -0.18,380.51 0.24,570.76 0.04,17.33 1.29,35.59 6.81,51.77 18.37,53.86 69.32,83.22 129.06,76.87 52.92,-5.64 96.75,-49.75 102.72,-104.35 1.55,-14.25 0.94,-28.75 0.95,-43.13 0.06,-177.47 0.41,-354.93 -0.1,-532.4 -0.17,-58.67 11.57,-114.13 37.58,-166.7 70.36,-142.199 221.38,-216.129 363.47,-197.941 160.95,20.613 285.4,138.34 312.88,294.201 4.96,28.13 6.57,57.16 6.67,85.78 0.6,171.07 0.3,342.14 0.33,513.22 0.01,14.38 -0.53,28.83 0.51,43.15 4.55,62.42 54.58,108.41 117.98,109.06 63.3,0.65 114.8,-44.6 120.6,-106.5 1.1,-12.7 0.7,-25.56 0.7,-38.34 0,-332.55 0,-665.1 0,-997.661 0,-11.18 0.3,-22.41 -0.4,-33.547 -3.9,-54.621 -44.3,-99.953 -97.6,-109.953 -56.7,-10.648 -109.62,17.563 -132.52,71.141 -4.97,11.652 -8.43,23.949 -13.34,38.082"
         style="fill:#231f20;fill-opacity:1;fill-rule:nonzero;stroke:none"
         id="path46" /><path
         d="m 8904.95,3524.33 c -8.5,-4.94 -15.63,-8.43 -22.05,-12.94 -103.59,-72.69 -220.1,-98.45 -344.79,-97.35 -254.11,2.25 -510.76,185.33 -575.49,477.01 -7.57,34.13 -11.98,69.67 -12.19,104.59 -1.2,193.54 -0.99,387.1 -0.5,580.65 0.15,60.78 31.09,103.36 84.18,120.28 73.91,23.55 149.33,-27.34 154.87,-104.81 1.02,-14.33 0.57,-28.78 0.57,-43.17 0.05,-174.36 0.12,-348.72 0.02,-523.08 -0.03,-56.72 10.34,-110.94 33.92,-162.94 53.08,-117.02 186.83,-232.45 382.26,-204.34 150.56,21.65 275.35,141.36 300.92,301.6 3.75,23.52 3.43,47.84 3.47,71.79 0.27,174.35 0.14,348.71 0.22,523.06 0,14.39 -0.66,28.94 1.18,43.13 6.55,50.66 44.8,91.4 94.89,102.4 48.43,10.65 102.15,-12.05 127.33,-56.49 8.38,-14.78 12.51,-32.67 15.39,-49.67 2.64,-15.58 1.18,-31.89 1.18,-47.89 0.03,-324.71 0.03,-649.44 0.01,-974.15 -0.01,-16 0.48,-32.05 -0.63,-47.98 -3.76,-53.96 -42.38,-97.77 -93.63,-107.1 -59.88,-10.88 -111.46,14.47 -134.88,66.61 -3.25,7.26 -4.9,15.22 -7.78,22.67 -2.19,5.68 -5.14,11.06 -8.47,18.12"
         style="fill:#231f20;fill-opacity:1;fill-rule:nonzero;stroke:none"
         id="path48" /><path
         d="m 16955.2,4590.17 c 12,7.52 20.2,12.49 28.2,17.66 124.9,80.69 261.3,108.89 408,88.22 236.1,-33.3 434.6,-207.11 498.4,-436.11 13.8,-49.48 21.6,-100.12 21.7,-151.57 0.3,-187.19 0.2,-374.38 -0.1,-561.57 -0.1,-15.79 -1.8,-32.14 -6.1,-47.25 -16.4,-57.55 -67.5,-90.44 -128.6,-84.25 -56.9,5.78 -99.6,49.25 -104.5,107.2 -1.3,15.9 -0.9,31.97 -0.9,47.96 -0.1,172.79 -0.1,345.58 0,518.37 0,66.86 -13.4,130.44 -47.7,188.38 -65.7,111.09 -163.3,176.1 -291.9,184.29 -216.3,13.8 -371.5,-160.85 -379.8,-333.92 -1,-20.76 -1,-41.58 -1,-62.37 0,-168 0.1,-335.99 -0.2,-503.98 -0.1,-19.04 -0.6,-38.7 -5.2,-57 -11.9,-47.63 -42.5,-78.35 -91.4,-87.27 -49.9,-9.1 -91.7,5.81 -122.3,47.54 -11.7,15.81 -18.9,33.49 -20,53.17 -1,17.55 -1.6,35.15 -1.6,52.73 -0.1,324.78 -0.1,649.56 0,974.35 0,15.98 0.6,31.98 1,47.96 0.9,43.54 36.6,96.79 99.4,108.38 50.3,9.32 103.3,-18.28 127.1,-66.21 6.3,-12.69 10.5,-26.45 17.5,-44.71"
         style="fill:#231f20;fill-opacity:1;fill-rule:nonzero;stroke:none"
         id="path50" /><path
         d="m 9634.32,4565.77 c 18.3,11.78 30.27,19.27 42.01,27.1 134.67,89.79 282.55,123.31 442.97,105.01 41.4,-4.72 82.5,-10.15 122.1,-23.65 29,-9.87 56.3,-22.85 79.9,-42.65 42.6,-35.67 54.9,-88.56 32.5,-138.43 -22.2,-49.43 -71.1,-77.13 -124.8,-68.85 -17.1,2.65 -33.8,9.26 -50.4,14.76 -80.9,26.76 -162.6,31.77 -245.62,10.26 -159.96,-41.45 -301.43,-186.73 -302.07,-397.01 -0.49,-158.38 -0.11,-316.77 -0.15,-475.16 0,-15.99 -0.81,-32.01 -0.18,-47.98 2.08,-52.19 -45.33,-114.93 -117.56,-114.87 -65.04,0.06 -116.11,45.95 -121.98,111.26 -0.86,9.53 -0.52,19.18 -0.52,28.78 -0.02,335.96 -0.04,671.93 0.05,1007.9 0,12.77 -0.26,25.74 1.77,38.28 9.7,59.88 61.1,102.83 121.1,102.02 57.92,-0.77 106.05,-42.86 116,-101.57 1.56,-9.19 2.58,-18.47 4.88,-35.2"
         style="fill:#231f20;fill-opacity:1;fill-rule:nonzero;stroke:none"
         id="path52" /><path
         d="m 10743.9,1230.04 c -0.1,-163.16 0,-326.329 -0.1,-489.489 0,-14.399 0.4,-28.852 -0.8,-43.172 -5.2,-62.578 -55.7,-110.027 -117.4,-110.879 -61.7,-0.852 -113.6,44.969 -120.9,107.359 -1.4,12.653 -0.9,25.563 -0.9,38.36 0,332.721 0,665.461 0,998.181 0,11.19 -0.2,22.43 0.6,33.58 4.1,56.78 52.6,112.87 122.5,110.32 62.5,-2.28 111.3,-47.94 116.2,-111.59 1.1,-14.33 0.7,-28.78 0.7,-43.17 0.1,-163.16 0.1,-326.34 0.1,-489.5"
         style="fill:#231f20;fill-opacity:1;fill-rule:nonzero;stroke:none"
         id="path54" /><path
         d="m 10764.3,2101.95 c 1.5,-75.55 -60.5,-140.07 -139.4,-140.45 -89.8,-0.42 -143.2,75.91 -142.8,142.88 0.5,70.48 61,142.36 145.2,140.65 69.2,-1.42 139.4,-59.62 137,-143.08"
         style="fill:#231f20;fill-opacity:1;fill-rule:nonzero;stroke:none"
         id="path56" /><path
         d="m 12745.7,3654.49 c -222.5,-4.35 -403.4,184.27 -404.7,401.27 -1.2,203.91 161.4,406.88 405,406.69 222.4,-0.17 403,-182.17 402.7,-404.6 -0.3,-237.77 -200.4,-407.93 -403,-403.36"
         style="fill:#ffffff;fill-opacity:1;fill-rule:nonzero;stroke:none"
         id="path58" /><path
         d="m 8506.76,1228.67 c 2.82,-199.35 -163.6,-401.361 -403.41,-402.498 -222.87,-1.063 -405.4,182.908 -404.01,406.558 1.43,230.06 193.44,404.64 408.08,402.48 216.81,-2.18 403.31,-188.14 399.34,-406.54"
         style="fill:#ffffff;fill-opacity:1;fill-rule:nonzero;stroke:none"
         id="path60" /><path
         d="m 11701.5,1634.26 c 205.3,4.61 402,-169.07 403.4,-402.08 1.5,-222.19 -183.3,-407.539 -405.2,-405.981 -244.3,1.731 -404.8,206.521 -402.9,407.811 2,215.26 182.2,404.7 404.7,400.25"
         style="fill:#ffffff;fill-opacity:1;fill-rule:nonzero;stroke:none"
         id="path62" /><path
         d="m 13899.4,4181.56 c 28.4,153.49 208.3,282.73 384.3,281.37 173.1,-1.34 352.2,-132.77 377.6,-279.08 -15.7,-9.16 -33.6,-5.19 -50.4,-5.22 -178.9,-0.34 -357.7,-0.22 -536.6,-0.21 -44.7,0 -89.4,-0.2 -134.1,0.14 -12.4,0.09 -24.8,1.77 -40.8,3"
         style="fill:#ffffff;fill-opacity:1;fill-rule:nonzero;stroke:none"
         id="path64" /><path
         d="m 6950.22,1354 c -257.37,0 -509.67,0 -765.25,0 1.97,10.85 2.1,20.15 5.35,28.19 48.03,118.93 135.34,195.83 256.5,233.91 200.1,62.9 402.1,-38 485.71,-208.08 7.65,-15.56 15.57,-31.1 17.69,-54.02"
         style="fill:#ffffff;fill-opacity:1;fill-rule:nonzero;stroke:none"
         id="path66" /><path
         d="m 15706.2,1354.06 c -255.5,0 -507.6,0 -763.4,0 2.3,12.25 2.6,23.13 6.5,32.47 45,107.57 123.5,181.04 231.9,221.89 203.8,76.82 419.7,-20.35 508.4,-199.51 7.6,-15.42 17,-30.6 16.6,-54.85"
         style="fill:#ffffff;fill-opacity:1;fill-rule:nonzero;stroke:none"
         id="path68" /><path
         d="m 7441.13,4181.93 c -13.06,-1.44 -22.27,-3.12 -31.51,-3.35 -181.07,-4.72 -683.76,-2.08 -731.09,4.08 1,8.68 0.24,18.07 3.28,26.02 25.7,67.32 67.6,123.04 124.85,166.5 216.9,164.61 496.47,82 610.51,-125.66 10.6,-19.31 22.18,-38.62 23.96,-67.59"
         style="fill:#ffffff;fill-opacity:1;fill-rule:nonzero;stroke:none"
         id="path70" /><path
         d="m 15815.8,3654.48 c -221.6,-3.38 -402.3,185.3 -402.8,403.17 -0.3,203.25 162.8,406.13 406.9,404.79 221.6,-1.22 402.2,-183.01 400.9,-406.48 -1.5,-238.28 -202.5,-406.91 -405,-401.48"
         style="fill:#ffffff;fill-opacity:1;fill-rule:nonzero;stroke:none"
         id="path72" /><path
         d="m 11206.6,3654.49 c -220.5,-2.85 -401.7,185.41 -401.6,404.37 0.2,199.93 159.6,402.7 403.3,403.58 224.6,0.82 406.5,-183.73 404.4,-407.67 -2.2,-236.47 -201.9,-406.22 -406.1,-400.28"
         style="fill:#ffffff;fill-opacity:1;fill-rule:nonzero;stroke:none"
         id="path74" /></g></g></svg>
